<svg xmlns="http://www.w3.org/2000/svg" width="256" height="256" viewBox="0 0 100 100"><rect width="100" height="100" rx="20" fill="#ffffff"></rect><path fill="#4deee3" d="M14.88 56.64L14.88 74.16Q14.24 74.40 13.20 74.60Q12.16 74.80 10.88 74.80L10.88 74.80Q8.40 74.80 7.32 73.88Q6.24 72.96 6.24 70.80L6.24 70.80L6.24 29.52Q6.24 28.16 7.00 27.40Q7.76 26.64 9.12 26.24L9.12 26.24Q11.60 25.36 15.04 25.04Q18.48 24.72 21.92 24.72L21.92 24.72Q32.32 24.72 37.40 28.92Q42.48 33.12 42.48 40.72L42.48 40.72Q42.48 46.00 39.72 49.72Q36.96 53.44 31.84 55.28L31.84 55.28Q33.76 57.68 35.60 60.04Q37.44 62.40 39.08 64.52Q40.72 66.64 42.04 68.36Q43.36 70.08 44.16 71.20L44.16 71.20Q43.76 73.04 42.40 74Q41.04 74.96 39.44 74.96L39.44 74.96Q37.52 74.96 36.40 74.04Q35.28 73.12 34.16 71.52L34.16 71.52L23.84 56.64L14.88 56.64ZM14.80 49.76L22.56 49.76Q27.76 49.76 30.80 47.52Q33.84 45.28 33.84 40.72L33.84 40.72Q33.84 36.24 30.76 34.00Q27.68 31.76 21.68 31.76L21.68 31.76Q19.84 31.76 18.04 31.92Q16.24 32.08 14.80 32.32L14.80 32.32L14.80 49.76ZM93.76 51.04L93.76 68.16Q93.76 69.84 92.92 70.92Q92.08 72 90.32 72.88L90.32 72.88Q88.24 74 84.56 74.72Q80.88 75.44 77.04 75.44L77.04 75.44Q71.36 75.44 66.60 73.96Q61.84 72.48 58.40 69.36Q54.96 66.24 53.04 61.44Q51.12 56.64 51.12 50.08L51.12 50.08Q51.12 43.68 53.12 38.88Q55.12 34.08 58.52 30.92Q61.92 27.76 66.52 26.16Q71.12 24.56 76.32 24.56L76.32 24.56Q79.76 24.56 82.64 25.16Q85.52 25.76 87.60 26.72Q89.68 27.68 90.80 28.92Q91.92 30.16 91.92 31.52L91.92 31.52Q91.92 32.88 91.20 33.88Q90.48 34.88 89.44 35.44L89.44 35.44Q87.28 34.08 84.32 32.88Q81.36 31.68 76.88 31.68L76.88 31.68Q73.28 31.68 70.16 32.88Q67.04 34.08 64.76 36.40Q62.48 38.72 61.20 42.16Q59.92 45.60 59.92 50.08L59.92 50.08Q59.92 54.80 61.24 58.28Q62.56 61.76 64.84 64.00Q67.12 66.24 70.28 67.32Q73.44 68.40 77.12 68.40L77.12 68.40Q79.68 68.40 81.92 67.96Q84.16 67.52 85.36 66.88L85.36 66.88L85.36 54.08L74.32 54.08Q73.92 53.60 73.64 52.68Q73.36 51.76 73.36 50.80L73.36 50.80Q73.36 48.96 74.20 48.08Q75.04 47.20 76.48 47.20L76.48 47.20L89.92 47.20Q91.60 47.20 92.68 48.20Q93.76 49.20 93.76 51.04L93.76 51.04Z"></path></svg>